<svg version="1.1" xmlns="http://www.w3.org/2000/svg" xmlns:xlink="http://www.w3.org/1999/xlink" width="400" height="400" viewBox="0 0 400 400"><defs/><g/><g transform="scale(1,1) scale(1,1)"><path fill="rgb(143,188,143)" stroke="none" paint-order="stroke fill markers" d=" M 0 0 L 76 0 L 76 76 L 0 76 L 0 0 Z" fill-opacity="1"/><path fill="rgb(143,188,143)" stroke="none" paint-order="stroke fill markers" d=" M 80 0 L 156 0 L 156 76 L 80 76 L 80 0 Z" fill-opacity="1"/><path fill="rgb(143,188,143)" stroke="none" paint-order="stroke fill markers" d=" M 160 0 L 236 0 L 236 76 L 160 76 L 160 0 Z" fill-opacity="1"/><path fill="rgb(143,188,143)" stroke="none" paint-order="stroke fill markers" d=" M 240 0 L 316 0 L 316 76 L 240 76 L 240 0 Z" fill-opacity="1"/><path fill="rgb(143,188,143)" stroke="none" paint-order="stroke fill markers" d=" M 320 0 L 396 0 L 396 76 L 320 76 L 320 0 Z" fill-opacity="1"/><path fill="rgb(143,188,143)" stroke="none" paint-order="stroke fill markers" d=" M 0 80 L 76 80 L 76 156 L 0 156 L 0 80 Z" fill-opacity="1"/><path fill="rgb(143,188,143)" stroke="none" paint-order="stroke fill markers" d=" M 80 80 L 156 80 L 156 156 L 80 156 L 80 80 Z" fill-opacity="1"/><path fill="rgb(143,188,143)" stroke="none" paint-order="stroke fill markers" d=" M 160 80 L 236 80 L 236 156 L 160 156 L 160 80 Z" fill-opacity="1"/><path fill="rgb(143,188,143)" stroke="none" paint-order="stroke fill markers" d=" M 240 80 L 316 80 L 316 156 L 240 156 L 240 80 Z" fill-opacity="1"/><path fill="rgb(143,188,143)" stroke="none" paint-order="stroke fill markers" d=" M 320 80 L 396 80 L 396 156 L 320 156 L 320 80 Z" fill-opacity="1"/><path fill="rgb(143,188,143)" stroke="none" paint-order="stroke fill markers" d=" M 0 160 L 76 160 L 76 236 L 0 236 L 0 160 Z" fill-opacity="1"/><path fill="rgb(143,188,143)" stroke="none" paint-order="stroke fill markers" d=" M 80 160 L 156 160 L 156 236 L 80 236 L 80 160 Z" fill-opacity="1"/><path fill="rgb(143,188,143)" stroke="none" paint-order="stroke fill markers" d=" M 160 160 L 236 160 L 236 236 L 160 236 L 160 160 Z" fill-opacity="1"/><path fill="rgb(143,188,143)" stroke="none" paint-order="stroke fill markers" d=" M 240 160 L 316 160 L 316 236 L 240 236 L 240 160 Z" fill-opacity="1"/><path fill="rgb(143,188,143)" stroke="none" paint-order="stroke fill markers" d=" M 320 160 L 396 160 L 396 236 L 320 236 L 320 160 Z" fill-opacity="1"/><path fill="rgb(143,188,143)" stroke="none" paint-order="stroke fill markers" d=" M 0 240 L 76 240 L 76 316 L 0 316 L 0 240 Z" fill-opacity="1"/><path fill="rgb(143,188,143)" stroke="none" paint-order="stroke fill markers" d=" M 80 240 L 156 240 L 156 316 L 80 316 L 80 240 Z" fill-opacity="1"/></g></svg>