<svg version="1.1" xmlns="http://www.w3.org/2000/svg" xmlns:xlink="http://www.w3.org/1999/xlink" width="400" height="400" viewBox="0 0 400 400"><defs/><g/><g transform="scale(1,1) scale(1,1) translate(200,200)"><path fill="rgb(143,188,143)" stroke="none" paint-order="stroke fill markers" d=" M -2 0 C -2 -1.1045694996 -1.1045694996 -2 0 -2 C 1.1045694996 -2 2 -1.1045694996 2 0 C 2 1.1045694996 1.1045694996 2 0 2 C -1.1045694996 2 -2 1.1045694996 -2 0 Z" fill-opacity="1"/><path fill="rgb(143,188,143)" stroke="none" paint-order="stroke fill markers" d=" M -0.9601170638493903 0.21079470691195268 C -0.9601170638493903 -0.8937747926880473 -0.06468656344939028 -1.7892052930880473 1.0398829361506097 -1.7892052930880473 C 2.1444524357506096 -1.7892052930880473 3.03988293615061 -0.8937747926880473 3.03988293615061 0.21079470691195268 C 3.03988293615061 1.3153642065119526 2.1444524357506096 2.210794706911953 1.0398829361506097 2.210794706911953 C -0.06468656344939028 2.210794706911953 -0.9601170638493903 1.3153642065119526 -0.9601170638493903 0.21079470691195268 Z" fill-opacity="1"/><path fill="rgb(143,188,143)" stroke="none" paint-order="stroke fill markers" d=" M -0.04544786553741664 0.82637138812098 C -0.04544786553741664 -0.27819811147901996 0.8499826348625834 -1.17362861187902 1.9545521344625834 -1.17362861187902 C 3.059121634062583 -1.17362861187902 3.9545521344625834 -0.27819811147901996 3.9545521344625834 0.82637138812098 C 3.9545521344625834 1.93094088772098 3.059121634062583 2.8263713881209798 1.9545521344625834 2.8263713881209798 C 0.8499826348625834 2.8263713881209798 -0.04544786553741664 1.93094088772098 -0.04544786553741664 0.82637138812098 Z" fill-opacity="1"/><path fill="rgb(143,188,143)" stroke="none" paint-order="stroke fill markers" d=" M 0.6271248564532863 1.7973128144090784 C 0.6271248564532863 0.6927433148090785 1.5225553568532864 -0.20268718559092158 2.6271248564532863 -0.20268718559092158 C 3.7316943560532865 -0.20268718559092158 4.627124856453286 0.6927433148090785 4.627124856453286 1.7973128144090784 C 4.627124856453286 2.9018823140090784 3.7316943560532865 3.7973128144090786 2.6271248564532863 3.7973128144090786 C 1.5225553568532864 3.7973128144090786 0.6271248564532863 2.9018823140090784 0.6271248564532863 1.7973128144090784 Z" fill-opacity="1"/><path fill="rgb(143,188,143)" stroke="none" paint-order="stroke fill markers" d=" M 0.9569151114103942 3.0445538086330153 C 0.9569151114103942 1.9399843090330153 1.8523456118103943 1.0445538086330153 2.956915111410394 1.0445538086330153 C 4.061484611010394 1.0445538086330153 4.956915111410394 1.9399843090330153 4.956915111410394 3.0445538086330153 C 4.956915111410394 4.1491233082330155 4.061484611010394 5.044553808633015 2.956915111410394 5.044553808633015 C 1.8523456118103943 5.044553808633015 0.9569151114103942 4.1491233082330155 0.9569151114103942 3.0445538086330153 Z" fill-opacity="1"/><path fill="rgb(143,188,143)" stroke="none" paint-order="stroke fill markers" d=" M 0.8663927580954538 4.46414222335273 C 0.8663927580954538 3.3595727237527298 1.7618232584954538 2.46414222335273 2.866392758095454 2.46414222335273 C 3.9709622576954535 2.46414222335273 4.866392758095454 3.3595727237527298 4.866392758095454 4.46414222335273 C 4.866392758095454 5.56871172295273 3.9709622576954535 6.46414222335273 2.866392758095454 6.46414222335273 C 1.7618232584954538 6.46414222335273 0.8663927580954538 5.56871172295273 0.8663927580954538 4.46414222335273 Z" fill-opacity="1"/><path fill="rgb(143,188,143)" stroke="none" paint-order="stroke fill markers" d=" M 0.30684111170567885 5.933545107461441 C 0.30684111170567885 4.828975607861441 1.202271612105679 3.933545107461441 2.306841111705679 3.933545107461441 C 3.411410611305679 3.933545107461441 4.306841111705679 4.828975607861441 4.306841111705679 5.933545107461441 C 4.306841111705679 7.038114607061441 3.411410611305679 7.933545107461441 2.306841111705679 7.933545107461441 C 1.202271612105679 7.933545107461441 0.30684111170567885 7.038114607061441 0.30684111170567885 5.933545107461441 Z" fill-opacity="1"/><path fill="rgb(143,188,143)" stroke="none" paint-order="stroke fill markers" d=" M -0.7376148220636045 7.319162465824394 C -0.7376148220636045 6.2145929662243935 0.15781567833639554 5.319162465824394 1.2623851779363955 5.319162465824394 C 2.3669546775363957 5.319162465824394 3.2623851779363955 6.2145929662243935 3.2623851779363955 7.319162465824394 C 3.2623851779363955 8.423731965424393 2.3669546775363957 9.319162465824395 1.2623851779363955 9.319162465824395 C 0.15781567833639554 9.319162465824395 -0.7376148220636045 8.423731965424393 -0.7376148220636045 7.319162465824394 Z" fill-opacity="1"/><path fill="rgb(143,188,143)" stroke="none" paint-order="stroke fill markers" d=" M -2.2478532432091796 8.484644261772349 C -2.2478532432091796 7.380074762172349 -1.3524227428091795 6.484644261772349 -0.24785324320917956 6.484644261772349 C 0.8567162563908204 6.484644261772349 1.7521467567908204 7.380074762172349 1.7521467567908204 8.484644261772349 C 1.7521467567908204 9.58921376137235 0.8567162563908204 10.484644261772349 -0.24785324320917956 10.484644261772349 C -1.3524227428091795 10.484644261772349 -2.2478532432091796 9.58921376137235 -2.2478532432091796 8.484644261772349 Z" fill-opacity="1"/><path fill="rgb(143,188,143)" stroke="none" paint-order="stroke fill markers" d=" M -4.169620187074259 9.299559856355774 C -4.169620187074259 8.194990356755774 -3.2741896866742595 7.299559856355774 -2.1696201870742593 7.299559856355774 C -1.0650506874742593 7.299559856355774 -0.1696201870742593 8.194990356755774 -0.1696201870742593 9.299559856355774 C -0.1696201870742593 10.404129355955774 -1.0650506874742593 11.299559856355774 -2.1696201870742593 11.299559856355774 C -3.2741896866742595 11.299559856355774 -4.169620187074259 10.404129355955774 -4.169620187074259 9.299559856355774 Z" fill-opacity="1"/><path fill="rgb(143,188,143)" stroke="none" paint-order="stroke fill markers" d=" M -6.415455072568845 9.647945348003216 C -6.415455072568845 8.543375848403215 -5.520024572168845 7.647945348003216 -4.415455072568845 7.647945348003216 C -3.3108855729688447 7.647945348003216 -2.415455072568845 8.543375848403215 -2.415455072568845 9.647945348003216 C -2.415455072568845 10.752514847603216 -3.3108855729688447 11.647945348003216 -4.415455072568845 11.647945348003216 C -5.520024572168845 11.647945348003216 -6.415455072568845 10.752514847603216 -6.415455072568845 9.647945348003216 Z" fill-opacity="1"/><path fill="rgb(143,188,143)" stroke="none" paint-order="stroke fill markers" d=" M -8.868609867261362 9.43625460359332 C -8.868609867261362 8.331685103993319 -7.973179366861363 7.436254603593319 -6.8686098672613625 7.436254603593319 C -5.764040367661362 7.436254603593319 -4.8686098672613625 8.331685103993319 -4.8686098672613625 9.43625460359332 C -4.8686098672613625 10.54082410319332 -5.764040367661362 11.43625460359332 -6.8686098672613625 11.43625460359332 C -7.973179366861363 11.43625460359332 -8.868609867261362 10.54082410319332 -8.868609867261362 9.43625460359332 Z" fill-opacity="1"/><path fill="rgb(143,188,143)" stroke="none" paint-order="stroke fill markers" d=" M -11.388788386663053 8.600264324903124 C -11.388788386663053 7.495694825303124 -10.493357886263054 6.600264324903124 -9.388788386663053 6.600264324903124 C -8.284218887063053 6.600264324903124 -7.3887883866630535 7.495694825303124 -7.3887883866630535 8.600264324903124 C -7.3887883866630535 9.704833824503124 -8.284218887063053 10.600264324903124 -9.388788386663053 10.600264324903124 C -10.493357886263054 10.600264324903124 -11.388788386663053 9.704833824503124 -11.388788386663053 8.600264324903124 Z" fill-opacity="1"/><path fill="rgb(143,188,143)" stroke="none" paint-order="stroke fill markers" d=" M -13.81943366747173 7.110531262990056 C -13.81943366747173 6.005961763390056 -12.92400316707173 5.110531262990056 -11.81943366747173 5.110531262990056 C -10.71486416787173 5.110531262990056 -9.81943366747173 6.005961763390056 -9.81943366747173 7.110531262990056 C -9.81943366747173 8.215100762590057 -10.71486416787173 9.110531262990056 -11.81943366747173 9.110531262990056 C -12.92400316707173 9.110531262990056 -13.81943366747173 8.215100762590057 -13.81943366747173 7.110531262990056 Z" fill-opacity="1"/><path fill="rgb(143,188,143)" stroke="none" paint-order="stroke fill markers" d=" M -15.996205347509724 4.976068530955415 C -15.996205347509724 3.871499031355415 -15.100774847109724 2.9760685309554153 -13.996205347509724 2.9760685309554153 C -12.891635847909724 2.9760685309554153 -11.996205347509724 3.871499031355415 -11.996205347509724 4.976068530955415 C -11.996205347509724 6.0806380305554155 -12.891635847909724 6.976068530955415 -13.996205347509724 6.976068530955415 C -15.100774847109724 6.976068530955415 -15.996205347509724 6.0806380305554155 -15.996205347509724 4.976068530955415 Z" fill-opacity="1"/><path fill="rgb(143,188,143)" stroke="none" paint-order="stroke fill markers" d=" M -17.756219945784732 2.2459946851895913 C -17.756219945784732 1.1414251855895914 -16.860789445384732 0.24599468518959133 -15.756219945784732 0.24599468518959133 C -14.651650446184732 0.24599468518959133 -13.756219945784732 1.1414251855895914 -13.756219945784732 2.2459946851895913 C -13.756219945784732 3.350564184789591 -14.651650446184732 4.245994685189592 -15.756219945784732 4.245994685189592 C -16.860789445384732 4.245994685189592 -17.756219945784732 3.350564184789591 -17.756219945784732 2.2459946851895913 Z" fill-opacity="1"/><path fill="rgb(143,188,143)" stroke="none" paint-order="stroke fill markers" d=" M -18.947578477925376 -0.9909902373605033 C -18.947578477925376 -2.095559736960503 -18.052147977525376 -2.9909902373605033 -16.947578477925376 -2.9909902373605033 C -15.843008978325376 -2.9909902373605033 -14.947578477925376 -2.095559736960503 -14.947578477925376 -0.9909902373605033 C -14.947578477925376 0.11357926223949666 -15.843008978325376 1.0090097626394967 -16.947578477925376 1.0090097626394967 C -18.052147977525376 1.0090097626394967 -18.947578477925376 0.11357926223949666 -18.947578477925376 -0.9909902373605033 Z" fill-opacity="1"/><path fill="rgb(143,188,143)" stroke="none" paint-order="stroke fill markers" d=" M -19.43868061641756 -4.609338015748346 C -19.43868061641756 -5.713907515348346 -18.54325011601756 -6.609338015748346 -17.43868061641756 -6.609338015748346 C -16.33411111681756 -6.609338015748346 -15.43868061641756 -5.713907515348346 -15.43868061641756 -4.609338015748346 C -15.43868061641756 -3.5047685161483457 -16.33411111681756 -2.609338015748346 -17.43868061641756 -2.609338015748346 C -18.54325011601756 -2.609338015748346 -19.43868061641756 -3.5047685161483457 -19.43868061641756 -4.609338015748346 Z" fill-opacity="1"/><path fill="rgb(143,188,143)" stroke="none" paint-order="stroke fill markers" d=" M -19.12682416626072 -8.451517916351124 C -19.12682416626072 -9.556087415951124 -18.231393665860722 -10.451517916351124 -17.12682416626072 -10.451517916351124 C -16.02225466666072 -10.451517916351124 -15.126824166260722 -9.556087415951124 -15.126824166260722 -8.451517916351124 C -15.126824166260722 -7.346948416751124 -16.02225466666072 -6.451517916351124 -17.12682416626072 -6.451517916351124 C -18.231393665860722 -6.451517916351124 -19.12682416626072 -7.346948416751124 -19.12682416626072 -8.451517916351124 Z" fill-opacity="1"/><path fill="rgb(143,188,143)" stroke="none" paint-order="stroke fill markers" d=" M -17.945613349120308 -12.334826323019993 C -17.945613349120308 -13.439395822619993 -17.050182848720308 -14.334826323019993 -15.945613349120308 -14.334826323019993 C -14.841043849520307 -14.334826323019993 -13.945613349120308 -13.439395822619993 -13.945613349120308 -12.334826323019993 C -13.945613349120308 -11.230256823419992 -14.841043849520307 -10.334826323019993 -15.945613349120308 -10.334826323019993 C -17.050182848720308 -10.334826323019993 -17.945613349120308 -11.230256823419992 -17.945613349120308 -12.334826323019993 Z" fill-opacity="1"/><path fill="rgb(143,188,143)" stroke="none" paint-order="stroke fill markers" d=" M -15.870748437457134 -16.059847743005047 C -15.870748437457134 -17.164417242605047 -14.975317937057135 -18.059847743005047 -13.870748437457134 -18.059847743005047 C -12.766178937857134 -18.059847743005047 -11.870748437457134 -17.164417242605047 -11.870748437457134 -16.059847743005047 C -11.870748437457134 -14.955278243405047 -12.766178937857134 -14.059847743005047 -13.870748437457134 -14.059847743005047 C -14.975317937057135 -14.059847743005047 -15.870748437457134 -14.955278243405047 -15.870748437457134 -16.059847743005047 Z" fill-opacity="1"/><path fill="rgb(143,188,143)" stroke="none" paint-order="stroke fill markers" d=" M -12.923840636893068 -19.420182944226323 C -12.923840636893068 -20.524752443826323 -12.028410136493068 -21.420182944226323 -10.923840636893068 -21.420182944226323 C -9.819271137293068 -21.420182944226323 -8.923840636893068 -20.524752443826323 -8.923840636893068 -19.420182944226323 C -8.923840636893068 -18.315613444626322 -9.819271137293068 -17.420182944226323 -10.923840636893068 -17.420182944226323 C -12.028410136493068 -17.420182944226323 -12.923840636893068 -18.315613444626322 -12.923840636893068 -19.420182944226323 Z" fill-opacity="1"/><path fill="rgb(143,188,143)" stroke="none" paint-order="stroke fill markers" d=" M -9.173986663313666 -22.212985507682287 C -9.173986663313666 -23.317555007282287 -8.278556162913667 -24.212985507682287 -7.173986663313666 -24.212985507682287 C -6.069417163713666 -24.212985507682287 -5.173986663313666 -23.317555007282287 -5.173986663313666 -22.212985507682287 C -5.173986663313666 -21.108416008082287 -6.069417163713666 -20.212985507682287 -7.173986663313666 -20.212985507682287 C -8.278556162913667 -20.212985507682287 -9.173986663313666 -21.108416008082287 -9.173986663313666 -22.212985507682287 Z" fill-opacity="1"/><path fill="rgb(143,188,143)" stroke="none" paint-order="stroke fill markers" d=" M -4.736943119767298 -24.249794720579246 C -4.736943119767298 -25.354364220179246 -3.8415126193672986 -26.249794720579246 -2.7369431197672984 -26.249794720579246 C -1.6323736201672985 -26.249794720579246 -0.7369431197672984 -25.354364220179246 -0.7369431197672984 -24.249794720579246 C -0.7369431197672984 -23.145225220979246 -1.6323736201672985 -22.249794720579246 -2.7369431197672984 -22.249794720579246 C -3.8415126193672986 -22.249794720579246 -4.736943119767298 -23.145225220979246 -4.736943119767298 -24.249794720579246 Z" fill-opacity="1"/><path fill="rgb(143,188,143)" stroke="none" paint-order="stroke fill markers" d=" M 0.2281433167846516 -25.367123460708555 C 0.2281433167846516 -26.471692960308555 1.1235738171846517 -27.367123460708555 2.2281433167846516 -27.367123460708555 C 3.3327128163846513 -27.367123460708555 4.228143316784651 -26.471692960308555 4.228143316784651 -25.367123460708555 C 4.228143316784651 -24.262553961108555 3.3327128163846513 -23.367123460708555 2.2281433167846516 -23.367123460708555 C 1.1235738171846517 -23.367123460708555 0.2281433167846516 -24.262553961108555 0.2281433167846516 -25.367123460708555 Z" fill-opacity="1"/><path fill="rgb(143,188,143)" stroke="none" paint-order="stroke fill markers" d=" M 5.524373164120454 -25.43625639390813 C 5.524373164120454 -26.54082589350813 6.419803664520454 -27.43625639390813 7.524373164120454 -27.43625639390813 C 8.628942663720453 -27.43625639390813 9.524373164120455 -26.54082589350813 9.524373164120455 -25.43625639390813 C 9.524373164120455 -24.33168689430813 8.628942663720453 -23.43625639390813 7.524373164120454 -23.43625639390813 C 6.419803664520454 -23.43625639390813 5.524373164120454 -24.33168689430813 5.524373164120454 -25.43625639390813 Z" fill-opacity="1"/><path fill="rgb(143,188,143)" stroke="none" paint-order="stroke fill markers" d=" M 10.924902320792114 -24.37173707893789 C 10.924902320792114 -25.47630657853789 11.820332821192114 -26.37173707893789 12.924902320792114 -26.37173707893789 C 14.029471820392114 -26.37173707893789 14.924902320792114 -25.47630657853789 14.924902320792114 -24.37173707893789 C 14.924902320792114 -23.26716757933789 14.029471820392114 -22.37173707893789 12.924902320792114 -22.37173707893789 C 11.820332821192114 -22.37173707893789 10.924902320792114 -23.26716757933789 10.924902320792114 -24.37173707893789 Z" fill-opacity="1"/><path fill="rgb(143,188,143)" stroke="none" paint-order="stroke fill markers" d=" M 16.1826115392667 -22.13807184727392 C 16.1826115392667 -23.24264134687392 17.0780420396667 -24.13807184727392 18.1826115392667 -24.13807184727392 C 19.2871810388667 -24.13807184727392 20.1826115392667 -23.24264134687392 20.1826115392667 -22.13807184727392 C 20.1826115392667 -21.03350234767392 19.2871810388667 -20.13807184727392 18.1826115392667 -20.13807184727392 C 17.0780420396667 -20.13807184727392 16.1826115392667 -21.03350234767392 16.1826115392667 -22.13807184727392 Z" fill-opacity="1"/><path fill="rgb(143,188,143)" stroke="none" paint-order="stroke fill markers" d=" M 21.041226741552116 -18.754251754257815 C 21.041226741552116 -19.858821253857815 21.936657241952116 -20.754251754257815 23.041226741552116 -20.754251754257815 C 24.145796241152116 -20.754251754257815 25.041226741552116 -19.858821253857815 25.041226741552116 -18.754251754257815 C 25.041226741552116 -17.649682254657815 24.145796241152116 -16.754251754257815 23.041226741552116 -16.754251754257815 C 21.936657241952116 -16.754251754257815 21.041226741552116 -17.649682254657815 21.041226741552116 -18.754251754257815 Z" fill-opacity="1"/><path fill="rgb(143,188,143)" stroke="none" paint-order="stroke fill markers" d=" M 25.247396276274646 -14.295788462160239 C 25.247396276274646 -15.400357961760239 26.142826776674646 -16.29578846216024 27.247396276274646 -16.29578846216024 C 28.351965775874646 -16.29578846216024 29.247396276274646 -15.400357961760239 29.247396276274646 -14.295788462160239 C 29.247396276274646 -13.191218962560239 28.351965775874646 -12.295788462160239 27.247396276274646 -12.295788462160239 C 26.142826776674646 -12.295788462160239 25.247396276274646 -13.191218962560239 25.247396276274646 -14.295788462160239 Z" fill-opacity="1"/><path fill="rgb(143,188,143)" stroke="none" paint-order="stroke fill markers" d=" M 28.563169466073603 -8.894071542968648 C 28.563169466073603 -9.998641042568648 29.458599966473603 -10.894071542968648 30.563169466073603 -10.894071542968648 C 31.667738965673603 -10.894071542968648 32.5631694660736 -9.998641042568648 32.5631694660736 -8.894071542968648 C 32.5631694660736 -7.789502043368648 31.667738965673603 -6.894071542968648 30.563169466073603 -6.894071542968648 C 29.458599966473603 -6.894071542968648 28.563169466073603 -7.789502043368648 28.563169466073603 -8.894071542968648 Z" fill-opacity="1"/><path fill="rgb(143,188,143)" stroke="none" paint-order="stroke fill markers" d=" M 30.77828415301773 -2.7329784299046107 C 30.77828415301773 -3.837547929504611 31.67371465341773 -4.732978429904611 32.77828415301773 -4.732978429904611 C 33.882853652617726 -4.732978429904611 34.77828415301773 -3.837547929504611 34.77828415301773 -2.7329784299046107 C 34.77828415301773 -1.6284089303046108 33.882853652617726 -0.7329784299046107 32.77828415301773 -0.7329784299046107 C 31.67371465341773 -0.7329784299046107 30.77828415301773 -1.6284089303046108 30.77828415301773 -2.7329784299046107 Z" fill-opacity="1"/><path fill="rgb(143,188,143)" stroke="none" paint-order="stroke fill markers" d=" M 31.721661701266953 3.957201507282431 C 31.721661701266953 2.8526320076824314 32.617092201666956 1.9572015072824311 33.72166170126695 1.9572015072824311 C 34.82623120086695 1.9572015072824311 35.72166170126695 2.8526320076824314 35.72166170126695 3.957201507282431 C 35.72166170126695 5.061771006882431 34.82623120086695 5.957201507282431 33.72166170126695 5.957201507282431 C 32.617092201666956 5.957201507282431 31.721661701266953 5.061771006882431 31.721661701266953 3.957201507282431 Z" fill-opacity="1"/><path fill="rgb(143,188,143)" stroke="none" paint-order="stroke fill markers" d=" M 31.271527101389253 10.908336555763611 C 31.271527101389253 9.803767056163611 32.16695760178926 8.908336555763611 33.27152710138925 8.908336555763611 C 34.37609660098925 8.908336555763611 35.27152710138925 9.803767056163611 35.27152710138925 10.908336555763611 C 35.27152710138925 12.012906055363612 34.37609660098925 12.908336555763611 33.27152710138925 12.908336555763611 C 32.16695760178926 12.908336555763611 31.271527101389253 12.012906055363612 31.271527101389253 10.908336555763611 Z" fill-opacity="1"/><path fill="rgb(143,188,143)" stroke="none" paint-order="stroke fill markers" d=" M 29.363619169528913 17.825198650453252 C 29.363619169528913 16.720629150853252 30.259049669928913 15.825198650453252 31.363619169528913 15.825198650453252 C 32.468188669128914 15.825198650453252 33.36361916952892 16.720629150853252 33.36361916952892 17.825198650453252 C 33.36361916952892 18.929768150053253 32.468188669128914 19.825198650453252 31.363619169528913 19.825198650453252 C 30.259049669928913 19.825198650453252 29.363619169528913 18.929768150053253 29.363619169528913 17.825198650453252 Z" fill-opacity="1"/><path fill="rgb(143,188,143)" stroke="none" paint-order="stroke fill markers" d=" M 25.997029756933983 24.39795510395302 C 25.997029756933983 23.29338560435302 26.892460257333983 22.39795510395302 27.997029756933983 22.39795510395302 C 29.101599256533984 22.39795510395302 29.997029756933983 23.29338560435302 29.997029756933983 24.39795510395302 C 29.997029756933983 25.50252460355302 29.101599256533984 26.39795510395302 27.997029756933983 26.39795510395302 C 26.892460257333983 26.39795510395302 25.997029756933983 25.50252460355302 25.997029756933983 24.39795510395302 Z" fill-opacity="1"/><path fill="rgb(143,188,143)" stroke="none" paint-order="stroke fill markers" d=" M 21.237308522622467 30.315879289146842 C 21.237308522622467 29.211309789546842 22.132739023022467 28.315879289146842 23.237308522622467 28.315879289146842 C 24.341878022222467 28.315879289146842 25.237308522622467 29.211309789546842 25.237308522622467 30.315879289146842 C 25.237308522622467 31.420448788746842 24.341878022222467 32.31587928914684 23.237308522622467 32.31587928914684 C 22.132739023022467 32.31587928914684 21.237308522622467 31.420448788746842 21.237308522622467 30.315879289146842 Z" fill-opacity="1"/><path fill="rgb(143,188,143)" stroke="none" paint-order="stroke fill markers" d=" M 15.216587157590421 35.28167950846427 C 15.216587157590421 34.177110008864275 16.11201765799042 33.28167950846427 17.21658715759042 33.28167950846427 C 18.32115665719042 33.28167950846427 19.21658715759042 34.177110008864275 19.21658715759042 35.28167950846427 C 19.21658715759042 36.38624900806427 18.32115665719042 37.28167950846427 17.21658715759042 37.28167950846427 C 16.11201765799042 37.28167950846427 15.216587157590421 36.38624900806427 15.216587157590421 35.28167950846427 Z" fill-opacity="1"/><path fill="rgb(143,188,143)" stroke="none" paint-order="stroke fill markers" d=" M 8.13060897335573 39.02579741432336 C 8.13060897335573 37.92122791472336 9.02603947375573 37.02579741432336 10.13060897335573 37.02579741432336 C 11.235178472955731 37.02579741432336 12.13060897335573 37.92122791472336 12.13060897335573 39.02579741432336 C 12.13060897335573 40.13036691392335 11.235178472955731 41.02579741432336 10.13060897335573 41.02579741432336 C 9.02603947375573 41.02579741432336 8.13060897335573 40.13036691392335 8.13060897335573 39.02579741432336 Z" fill-opacity="1"/><path fill="rgb(143,188,143)" stroke="none" paint-order="stroke fill markers" d=" M 0.23269069117824603 41.32000842005041 C 0.23269069117824603 40.21543892045041 1.128121191578246 39.32000842005041 2.232690691178246 39.32000842005041 C 3.337260190778246 39.32000842005041 4.232690691178246 40.21543892045041 4.232690691178246 41.32000842005041 C 4.232690691178246 42.4245779196504 3.337260190778246 43.32000842005041 2.232690691178246 43.32000842005041 C 1.128121191578246 43.32000842005041 0.23269069117824603 42.4245779196504 0.23269069117824603 41.32000842005041 Z" fill-opacity="1"/><path fill="rgb(143,188,143)" stroke="none" paint-order="stroke fill markers" d=" M -8.175213226847813 41.98966811702444 C -8.175213226847813 40.88509861742445 -7.279782726447813 39.98966811702444 -6.175213226847813 39.98966811702444 C -5.070643727247813 39.98966811702444 -4.175213226847813 40.88509861742445 -4.175213226847813 41.98966811702444 C -4.175213226847813 43.09423761662444 -5.070643727247813 43.98966811702444 -6.175213226847813 43.98966811702444 C -7.279782726447813 43.98966811702444 -8.175213226847813 43.09423761662444 -8.175213226847813 41.98966811702444 Z" fill-opacity="1"/><path fill="rgb(143,188,143)" stroke="none" paint-order="stroke fill markers" d=" M -16.75403384378746 40.92399097826815 C -16.75403384378746 39.819421478668154 -15.858603343387461 38.92399097826815 -14.754033843787461 38.92399097826815 C -13.64946434418746 38.92399097826815 -12.754033843787461 39.819421478668154 -12.754033843787461 40.92399097826815 C -12.754033843787461 42.02856047786815 -13.64946434418746 42.92399097826815 -14.754033843787461 42.92399097826815 C -15.858603343387461 42.92399097826815 -16.75403384378746 42.02856047786815 -16.75403384378746 40.92399097826815 Z" fill-opacity="1"/><path fill="rgb(143,188,143)" stroke="none" paint-order="stroke fill markers" d=" M -25.141259734378316 38.08381936329209 C -25.141259734378316 36.9792498636921 -24.245829233978316 36.08381936329209 -23.141259734378316 36.08381936329209 C -22.036690234778316 36.08381936329209 -21.141259734378316 36.9792498636921 -21.141259734378316 38.08381936329209 C -21.141259734378316 39.18838886289209 -22.036690234778316 40.08381936329209 -23.141259734378316 40.08381936329209 C -24.245829233978316 40.08381936329209 -25.141259734378316 39.18838886289209 -25.141259734378316 38.08381936329209 Z" fill-opacity="1"/><path fill="rgb(143,188,143)" stroke="none" paint-order="stroke fill markers" d=" M -32.96620647854299 33.50643945144879 C -32.96620647854299 32.401869951848795 -32.07077597814299 31.50643945144879 -30.966206478542993 31.50643945144879 C -29.861636978942993 31.50643945144879 -28.966206478542993 32.401869951848795 -28.966206478542993 33.50643945144879 C -28.966206478542993 34.61100895104879 -29.861636978942993 35.50643945144879 -30.966206478542993 35.50643945144879 C -32.07077597814299 35.50643945144879 -32.96620647854299 34.61100895104879 -32.96620647854299 33.50643945144879 Z" fill-opacity="1"/><path fill="rgb(143,188,143)" stroke="none" paint-order="stroke fill markers" d=" M -39.866242331930245 27.307122347460123 C -39.866242331930245 26.202552847860122 -38.97081183153024 25.307122347460123 -37.866242331930245 25.307122347460123 C -36.76167283233025 25.307122347460123 -35.866242331930245 26.202552847860122 -35.866242331930245 27.307122347460123 C -35.866242331930245 28.411691847060123 -36.76167283233025 29.307122347460123 -37.866242331930245 29.307122347460123 C -38.97081183153024 29.307122347460123 -39.866242331930245 28.411691847060123 -39.866242331930245 27.307122347460123 Z" fill-opacity="1"/><path fill="rgb(143,188,143)" stroke="none" paint-order="stroke fill markers" d=" M -45.503265493867836 19.677208219730964 C -45.503265493867836 18.572638720130964 -44.60783499346783 17.677208219730964 -43.503265493867836 17.677208219730964 C -42.39869599426784 17.677208219730964 -41.503265493867836 18.572638720130964 -41.503265493867836 19.677208219730964 C -41.503265493867836 20.781777719330965 -42.39869599426784 21.677208219730964 -43.503265493867836 21.677208219730964 C -44.60783499346783 21.677208219730964 -45.503265493867836 20.781777719330965 -45.503265493867836 19.677208219730964 Z" fill-opacity="1"/><path fill="rgb(143,188,143)" stroke="none" paint-order="stroke fill markers" d=" M -49.57969553367689 10.878703022277255 C -49.57969553367689 9.774133522677255 -48.68426503327689 8.878703022277255 -47.57969553367689 8.878703022277255 C -46.475126034076894 8.878703022277255 -45.57969553367689 9.774133522677255 -45.57969553367689 10.878703022277255 C -45.57969553367689 11.983272521877256 -46.475126034076894 12.878703022277255 -47.57969553367689 12.878703022277255 C -48.68426503327689 12.878703022277255 -49.57969553367689 11.983272521877256 -49.57969553367689 10.878703022277255 Z" fill-opacity="1"/><path fill="rgb(143,188,143)" stroke="none" paint-order="stroke fill markers" d=" M -51.8532412872028 1.2355145141401722 C -51.8532412872028 0.13094501454017227 -50.957810786802796 -0.7644854858598278 -49.8532412872028 -0.7644854858598278 C -48.7486717876028 -0.7644854858598278 -47.8532412872028 0.13094501454017227 -47.8532412872028 1.2355145141401722 C -47.8532412872028 2.340084013740172 -48.7486717876028 3.2355145141401724 -49.8532412872028 3.2355145141401724 C -50.957810786802796 3.2355145141401724 -51.8532412872028 2.340084013740172 -51.8532412872028 1.2355145141401722 Z" fill-opacity="1"/><path fill="rgb(143,188,143)" stroke="none" paint-order="stroke fill markers" d=" M -52.149740688702316 -8.878390062379626 C -52.149740688702316 -9.982959561979627 -51.25431018830231 -10.878390062379626 -50.149740688702316 -10.878390062379626 C -49.04517118910232 -10.878390062379626 -48.149740688702316 -9.982959561979627 -48.149740688702316 -8.878390062379626 C -48.149740688702316 -7.773820562779626 -49.04517118910232 -6.878390062379626 -50.149740688702316 -6.878390062379626 C -51.25431018830231 -6.878390062379626 -52.149740688702316 -7.773820562779626 -52.149740688702316 -8.878390062379626 Z" fill-opacity="1"/><path fill="rgb(143,188,143)" stroke="none" paint-order="stroke fill markers" d=" M -50.37343386009192 -19.053475220416107 C -50.37343386009192 -20.158044720016107 -49.47800335969192 -21.053475220416107 -48.37343386009192 -21.053475220416107 C -47.268864360491925 -21.053475220416107 -46.37343386009192 -20.158044720016107 -46.37343386009192 -19.053475220416107 C -46.37343386009192 -17.948905720816107 -47.268864360491925 -17.053475220416107 -48.37343386009192 -17.053475220416107 C -49.47800335969192 -17.053475220416107 -50.37343386009192 -17.948905720816107 -50.37343386009192 -19.053475220416107 Z" fill-opacity="1"/><path fill="rgb(143,188,143)" stroke="none" paint-order="stroke fill markers" d=" M -46.51412715339756 -28.861216314795616 C -46.51412715339756 -29.965785814395616 -45.618696652997556 -30.861216314795616 -44.51412715339756 -30.861216314795616 C -43.40955765379756 -30.861216314795616 -42.51412715339756 -29.965785814395616 -42.51412715339756 -28.861216314795616 C -42.51412715339756 -27.756646815195616 -43.40955765379756 -26.861216314795616 -44.51412715339756 -26.861216314795616 C -45.618696652997556 -26.861216314795616 -46.51412715339756 -27.756646815195616 -46.51412715339756 -28.861216314795616 Z" fill-opacity="1"/><path fill="rgb(143,188,143)" stroke="none" paint-order="stroke fill markers" d=" M -40.65082912830088 -37.87209546563866 C -40.65082912830088 -38.976664965238655 -39.755398627900874 -39.87209546563866 -38.65082912830088 -39.87209546563866 C -37.54625962870088 -39.87209546563866 -36.65082912830088 -38.976664965238655 -36.65082912830088 -37.87209546563866 C -36.65082912830088 -36.76752596603866 -37.54625962870088 -35.87209546563866 -38.65082912830088 -35.87209546563866 C -39.755398627900874 -35.87209546563866 -40.65082912830088 -36.76752596603866 -40.65082912830088 -37.87209546563866 Z" fill-opacity="1"/><path fill="rgb(143,188,143)" stroke="none" paint-order="stroke fill markers" d=" M -32.95158475631055 -45.67426052012766 C -32.95158475631055 -46.77883001972766 -32.05615425591055 -47.67426052012766 -30.951584756310552 -47.67426052012766 C -29.847015256710552 -47.67426052012766 -28.951584756310552 -46.77883001972766 -28.951584756310552 -45.67426052012766 C -28.951584756310552 -44.569691020527664 -29.847015256710552 -43.67426052012766 -30.951584756310552 -43.67426052012766 C -32.05615425591055 -43.67426052012766 -32.95158475631055 -44.569691020527664 -32.95158475631055 -45.67426052012766 Z" fill-opacity="1"/><path fill="rgb(143,188,143)" stroke="none" paint-order="stroke fill markers" d=" M -23.669395497610243 -51.89204196539623 C -23.669395497610243 -52.99661146499623 -22.773964997210243 -53.89204196539623 -21.669395497610243 -53.89204196539623 C -20.564825998010242 -53.89204196539623 -19.669395497610243 -52.99661146499623 -19.669395497610243 -51.89204196539623 C -19.669395497610243 -50.787472465796235 -20.564825998010242 -49.89204196539623 -21.669395497610243 -49.89204196539623 C -22.773964997210243 -49.89204196539623 -23.669395497610243 -50.787472465796235 -23.669395497610243 -51.89204196539623 Z" fill-opacity="1"/><path fill="rgb(143,188,143)" stroke="none" paint-order="stroke fill markers" d=" M -13.134283473063167 -56.20350595428378 C -13.134283473063167 -57.308075453883774 -12.238852972663167 -58.20350595428378 -11.134283473063167 -58.20350595428378 C -10.029713973463167 -58.20350595428378 -9.134283473063167 -57.308075453883774 -9.134283473063167 -56.20350595428378 C -9.134283473063167 -55.09893645468378 -10.029713973463167 -54.20350595428378 -11.134283473063167 -54.20350595428378 C -12.238852972663167 -54.20350595428378 -13.134283473063167 -55.09893645468378 -13.134283473063167 -56.20350595428378 Z" fill-opacity="1"/><path fill="rgb(143,188,143)" stroke="none" paint-order="stroke fill markers" d=" M -1.7417303724760307 -58.35624095254425 C -1.7417303724760307 -59.460810452144244 -0.8462998720760306 -60.35624095254425 0.2582696275239693 -60.35624095254425 C 1.3628391271239693 -60.35624095254425 2.258269627523969 -59.460810452144244 2.258269627523969 -58.35624095254425 C 2.258269627523969 -57.25167145294425 1.3628391271239693 -56.35624095254425 0.2582696275239693 -56.35624095254425 C -0.8462998720760306 -56.35624095254425 -1.7417303724760307 -57.25167145294425 -1.7417303724760307 -58.35624095254425 Z" fill-opacity="1"/><path fill="rgb(143,188,143)" stroke="none" paint-order="stroke fill markers" d=" M 10.062111618088021 -58.180630950373626 C 10.062111618088021 -59.28520044997362 10.957542118488021 -60.180630950373626 12.062111618088021 -60.180630950373626 C 13.166681117688022 -60.180630950373626 14.062111618088021 -59.28520044997362 14.062111618088021 -58.180630950373626 C 14.062111618088021 -57.07606145077363 13.166681117688022 -56.180630950373626 12.062111618088021 -56.180630950373626 C 10.957542118488021 -56.180630950373626 10.062111618088021 -57.07606145077363 10.062111618088021 -58.180630950373626 Z" fill-opacity="1"/><path fill="rgb(143,188,143)" stroke="none" paint-order="stroke fill markers" d=" M 21.797886247495573 -55.59995809026882 C 21.797886247495573 -56.70452758986882 22.693316747895572 -57.59995809026882 23.797886247495573 -57.59995809026882 C 24.902455747095573 -57.59995809026882 25.797886247495573 -56.70452758986882 25.797886247495573 -55.59995809026882 C 25.797886247495573 -54.495388590668824 24.902455747095573 -53.59995809026882 23.797886247495573 -53.59995809026882 C 22.693316747895572 -53.59995809026882 21.797886247495573 -54.495388590668824 21.797886247495573 -55.59995809026882 Z" fill-opacity="1"/><path fill="rgb(143,188,143)" stroke="none" paint-order="stroke fill markers" d=" M 32.97249342503481 -50.63679877323017 C 32.97249342503481 -51.741368272830165 33.867923925434816 -52.63679877323017 34.97249342503481 -52.63679877323017 C 36.07706292463481 -52.63679877323017 36.97249342503481 -51.741368272830165 36.97249342503481 -50.63679877323017 C 36.97249342503481 -49.53222927363017 36.07706292463481 -48.63679877323017 34.97249342503481 -48.63679877323017 C 33.867923925434816 -48.63679877323017 32.97249342503481 -49.53222927363017 32.97249342503481 -50.63679877323017 Z" fill-opacity="1"/><path fill="rgb(143,188,143)" stroke="none" paint-order="stroke fill markers" d=" M 43.099753476833236 -43.41532519086566 C 43.099753476833236 -44.519894690465655 43.99518397723324 -45.41532519086566 45.099753476833236 -45.41532519086566 C 46.20432297643323 -45.41532519086566 47.099753476833236 -44.519894690465655 47.099753476833236 -43.41532519086566 C 47.099753476833236 -42.31075569126566 46.20432297643323 -41.41532519086566 45.099753476833236 -41.41532519086566 C 43.99518397723324 -41.41532519086566 43.099753476833236 -42.31075569126566 43.099753476833236 -43.41532519086566 Z" fill-opacity="1"/><path fill="rgb(143,188,143)" stroke="none" paint-order="stroke fill markers" d=" M 51.721411511975745 -34.159292891605126 C 51.721411511975745 -35.26386239120512 52.61684201237575 -36.159292891605126 53.721411511975745 -36.159292891605126 C 54.82598101157574 -36.159292891605126 55.721411511975745 -35.26386239120512 55.721411511975745 -34.159292891605126 C 55.721411511975745 -33.05472339200513 54.82598101157574 -32.159292891605126 53.721411511975745 -32.159292891605126 C 52.61684201237575 -32.159292891605126 51.721411511975745 -33.05472339200513 51.721411511975745 -34.159292891605126 Z" fill-opacity="1"/><path fill="rgb(143,188,143)" stroke="none" paint-order="stroke fill markers" d=" M 58.42757985982665 -23.185677484823504 C 58.42757985982665 -24.290246984423504 59.323010360226654 -25.185677484823504 60.42757985982665 -25.185677484823504 C 61.53214935942665 -25.185677484823504 62.42757985982665 -24.290246984423504 62.42757985982665 -23.185677484823504 C 62.42757985982665 -22.081107985223504 61.53214935942665 -21.185677484823504 60.42757985982665 -21.185677484823504 C 59.323010360226654 -21.185677484823504 58.42757985982665 -22.081107985223504 58.42757985982665 -23.185677484823504 Z" fill-opacity="1"/><path fill="rgb(143,188,143)" stroke="none" paint-order="stroke fill markers" d=" M 62.87571696203436 -10.894112222626582 C 62.87571696203436 -11.998681722226582 63.771147462434364 -12.894112222626582 64.87571696203436 -12.894112222626582 C 65.98028646163436 -12.894112222626582 66.87571696203436 -11.998681722226582 66.87571696203436 -10.894112222626582 C 66.87571696203436 -9.789542723026582 65.98028646163436 -8.894112222626582 64.87571696203436 -8.894112222626582 C 63.771147462434364 -8.894112222626582 62.87571696203436 -9.789542723026582 62.87571696203436 -10.894112222626582 Z" fill-opacity="1"/><path fill="rgb(143,188,143)" stroke="none" paint-order="stroke fill markers" d=" M 64.80728092338342 2.247535150162738 C 64.80728092338342 1.142965650562738 65.70271142378341 0.24753515016273786 66.80728092338342 0.24753515016273786 C 67.91185042298342 0.24753515016273786 68.80728092338342 1.142965650562738 68.80728092338342 2.247535150162738 C 68.80728092338342 3.3521046497627376 67.91185042298342 4.247535150162738 66.80728092338342 4.247535150162738 C 65.70271142378341 4.247535150162738 64.80728092338342 3.3521046497627376 64.80728092338342 2.247535150162738 Z" fill-opacity="1"/><path fill="rgb(143,188,143)" stroke="none" paint-order="stroke fill markers" d=" M 64.06127429611443 15.720931430079075 C 64.06127429611443 14.616361930479075 64.95670479651443 13.720931430079075 66.06127429611443 13.720931430079075 C 67.16584379571444 13.720931430079075 68.06127429611443 14.616361930479075 68.06127429611443 15.720931430079075 C 68.06127429611443 16.825500929679073 67.16584379571444 17.720931430079077 66.06127429611443 17.720931430079077 C 64.95670479651443 17.720931430079077 64.06127429611443 16.825500929679073 64.06127429611443 15.720931430079075 Z" fill-opacity="1"/><path fill="rgb(143,188,143)" stroke="none" paint-order="stroke fill markers" d=" M 60.58401103960649 28.97771969526729 C 60.58401103960649 27.87315019566729 61.47944154000649 26.97771969526729 62.58401103960649 26.97771969526729 C 63.688580539206484 26.97771969526729 64.58401103960648 27.87315019566729 64.58401103960648 28.97771969526729 C 64.58401103960648 30.08228919486729 63.688580539206484 30.97771969526729 62.58401103960649 30.97771969526729 C 61.47944154000649 30.97771969526729 60.58401103960649 30.08228919486729 60.58401103960649 28.97771969526729 Z" fill-opacity="1"/><path fill="rgb(143,188,143)" stroke="none" paint-order="stroke fill markers" d=" M 54.43458278345295 41.46182767735563 C 54.43458278345295 40.35725817775563 55.330013283852956 39.46182767735563 56.43458278345295 39.46182767735563 C 57.53915228305295 39.46182767735563 58.43458278345295 40.35725817775563 58.43458278345295 41.46182767735563 C 58.43458278345295 42.566397176955626 57.53915228305295 43.46182767735563 56.43458278345295 43.46182767735563 C 55.330013283852956 43.46182767735563 54.43458278345295 42.566397176955626 54.43458278345295 41.46182767735563 Z" fill-opacity="1"/><path fill="rgb(143,188,143)" stroke="none" paint-order="stroke fill markers" d=" M 45.78567387534144 52.63273557562287 C 45.78567387534144 51.52816607602287 46.68110437574144 50.63273557562287 47.78567387534144 50.63273557562287 C 48.890243374941434 50.63273557562287 49.78567387534144 51.52816607602287 49.78567387534144 52.63273557562287 C 49.78567387534144 53.737305075222864 48.890243374941434 54.63273557562287 47.78567387534144 54.63273557562287 C 46.68110437574144 54.63273557562287 45.78567387534144 53.737305075222864 45.78567387534144 52.63273557562287 Z" fill-opacity="1"/><path fill="rgb(143,188,143)" stroke="none" paint-order="stroke fill markers" d=" M 34.91956630877966 61.98873188676352 C 34.91956630877966 60.88416238716352 35.81499680917966 59.98873188676352 36.91956630877966 59.98873188676352 C 38.024135808379654 59.98873188676352 38.91956630877966 60.88416238716352 38.91956630877966 61.98873188676352 C 38.91956630877966 63.093301386363514 38.024135808379654 63.98873188676352 36.91956630877966 63.98873188676352 C 35.81499680917966 63.98873188676352 34.91956630877966 63.093301386363514 34.91956630877966 61.98873188676352 Z" fill-opacity="1"/><path fill="rgb(143,188,143)" stroke="none" paint-order="stroke fill markers" d=" M 22.21937861401032 69.08916206056401 C 22.21937861401032 67.984592560964 23.11480911441032 67.08916206056401 24.21937861401032 67.08916206056401 C 25.32394811361032 67.08916206056401 26.21937861401032 67.984592560964 26.21937861401032 69.08916206056401 C 26.21937861401032 70.19373156016401 25.32394811361032 71.08916206056401 24.21937861401032 71.08916206056401 C 23.11480911441032 71.08916206056401 22.21937861401032 70.19373156016401 22.21937861401032 69.08916206056401 Z" fill-opacity="1"/><path fill="rgb(143,188,143)" stroke="none" paint-order="stroke fill markers" d=" M 8.15578861846015 73.57469341694707 C 8.15578861846015 72.47012391734707 9.05121911886015 71.57469341694707 10.15578861846015 71.57469341694707 C 11.26035811806015 71.57469341694707 12.15578861846015 72.47012391734707 12.15578861846015 73.57469341694707 C 12.15578861846015 74.67926291654707 11.26035811806015 75.57469341694707 10.15578861846015 75.57469341694707 C 9.05121911886015 75.57469341694707 8.15578861846015 74.67926291654707 8.15578861846015 73.57469341694707 Z" fill-opacity="1"/><path fill="rgb(143,188,143)" stroke="none" paint-order="stroke fill markers" d=" M -6.730310195280824 75.18468088883986 C -6.730310195280824 74.08011138923986 -5.834879694880824 73.18468088883986 -4.730310195280824 73.18468088883986 C -3.6257406956808236 73.18468088883986 -2.7303101952808237 74.08011138923986 -2.7303101952808237 75.18468088883986 C -2.7303101952808237 76.28925038843987 -3.6257406956808236 77.18468088883986 -4.730310195280824 77.18468088883986 C -5.834879694880824 77.18468088883986 -6.730310195280824 76.28925038843987 -6.730310195280824 75.18468088883986 Z" fill-opacity="1"/><path fill="rgb(143,188,143)" stroke="none" paint-order="stroke fill markers" d=" M -21.848583940392295 73.77082006701457 C -21.848583940392295 72.66625056741456 -20.953153439992295 71.77082006701457 -19.848583940392295 71.77082006701457 C -18.744014440792295 71.77082006701457 -17.848583940392295 72.66625056741456 -17.848583940392295 73.77082006701457 C -17.848583940392295 74.87538956661457 -18.744014440792295 75.77082006701457 -19.848583940392295 75.77082006701457 C -20.953153439992295 75.77082006701457 -21.848583940392295 74.87538956661457 -21.848583940392295 73.77082006701457 Z" fill-opacity="1"/><path fill="rgb(143,188,143)" stroke="none" paint-order="stroke fill markers" d=" M -36.58266837559889 69.30641319949468 C -36.58266837559889 68.20184369989468 -35.68723787519889 67.30641319949468 -34.58266837559889 67.30641319949468 C -33.478098875998896 67.30641319949468 -32.58266837559889 68.20184369989468 -32.58266837559889 69.30641319949468 C -32.58266837559889 70.41098269909469 -33.478098875998896 71.30641319949468 -34.58266837559889 71.30641319949468 C -35.68723787519889 71.30641319949468 -36.58266837559889 70.41098269909469 -36.58266837559889 69.30641319949468 Z" fill-opacity="1"/><path fill="rgb(143,188,143)" stroke="none" paint-order="stroke fill markers" d=" M -50.31528544034872 61.890745043093354 C -50.31528544034872 60.78617554349336 -49.41985493994871 59.890745043093354 -48.31528544034872 59.890745043093354 C -47.21071594074872 59.890745043093354 -46.31528544034872 60.78617554349336 -46.31528544034872 61.890745043093354 C -46.31528544034872 62.99531454269335 -47.21071594074872 63.890745043093354 -48.31528544034872 63.890745043093354 C -49.41985493994871 63.890745043093354 -50.31528544034872 62.99531454269335 -50.31528544034872 61.890745043093354 Z" fill-opacity="1"/><path fill="rgb(143,188,143)" stroke="none" paint-order="stroke fill markers" d=" M -62.454043269322035 51.748262096779946 C -62.454043269322035 50.64369259717995 -61.55861276892203 49.748262096779946 -60.454043269322035 49.748262096779946 C -59.34947376972204 49.748262096779946 -58.454043269322035 50.64369259717995 -58.454043269322035 51.748262096779946 C -58.454043269322035 52.85283159637994 -59.34947376972204 53.748262096779946 -60.454043269322035 53.748262096779946 C -61.55861276892203 53.748262096779946 -62.454043269322035 52.85283159637994 -62.454043269322035 51.748262096779946 Z" fill-opacity="1"/><path fill="rgb(143,188,143)" stroke="none" paint-order="stroke fill markers" d=" M -72.45684363626155 39.22246285988094 C -72.45684363626155 38.117893360280945 -71.56141313586156 37.22246285988094 -70.45684363626155 37.22246285988094 C -69.35227413666155 37.22246285988094 -68.45684363626155 38.117893360280945 -68.45684363626155 39.22246285988094 C -68.45684363626155 40.32703235948094 -69.35227413666155 41.22246285988094 -70.45684363626155 41.22246285988094 C -71.56141313586156 41.22246285988094 -72.45684363626155 40.32703235948094 -72.45684363626155 39.22246285988094 Z" fill-opacity="1"/><path fill="rgb(143,188,143)" stroke="none" paint-order="stroke fill markers" d=" M -79.8558125249692 24.76462953989358 C -79.8558125249692 23.66006004029358 -78.9603820245692 22.76462953989358 -77.8558125249692 22.76462953989358 C -76.75124302536919 22.76462953989358 -75.8558125249692 23.66006004029358 -75.8558125249692 24.76462953989358 C -75.8558125249692 25.86919903949358 -76.75124302536919 26.76462953989358 -77.8558125249692 26.76462953989358 C -78.9603820245692 26.76462953989358 -79.8558125249692 25.86919903949358 -79.8558125249692 24.76462953989358 Z" fill-opacity="1"/><path fill="rgb(143,188,143)" stroke="none" paint-order="stroke fill markers" d=" M -84.27870734686987 8.917753727826074 C -84.27870734686987 7.813184228226074 -83.38327684646987 6.917753727826074 -82.27870734686987 6.917753727826074 C -81.17413784726986 6.917753727826074 -80.27870734686987 7.813184228226074 -80.27870734686987 8.917753727826074 C -80.27870734686987 10.022323227426075 -81.17413784726986 10.917753727826074 -82.27870734686987 10.917753727826074 C -83.38327684646987 10.917753727826074 -84.27870734686987 10.022323227426075 -84.27870734686987 8.917753727826074 Z" fill-opacity="1"/><path fill="rgb(143,188,143)" stroke="none" paint-order="stroke fill markers" d=" M -85.4668375514367 -7.703779546008711 C -85.4668375514367 -8.808349045608711 -84.5714070510367 -9.703779546008711 -83.4668375514367 -9.703779546008711 C -82.3622680518367 -9.703779546008711 -81.4668375514367 -8.808349045608711 -81.4668375514367 -7.703779546008711 C -81.4668375514367 -6.599210046408711 -82.3622680518367 -5.703779546008711 -83.4668375514367 -5.703779546008711 C -84.5714070510367 -5.703779546008711 -85.4668375514367 -6.599210046408711 -85.4668375514367 -7.703779546008711 Z" fill-opacity="1"/><path fill="rgb(143,188,143)" stroke="none" paint-order="stroke fill markers" d=" M -83.28866138255107 -24.437992522556016 C -83.28866138255107 -25.542562022156016 -82.39323088215107 -26.437992522556016 -81.28866138255107 -26.437992522556016 C -80.18409188295107 -26.437992522556016 -79.28866138255107 -25.542562022156016 -79.28866138255107 -24.437992522556016 C -79.28866138255107 -23.333423022956016 -80.18409188295107 -22.437992522556016 -81.28866138255107 -22.437992522556016 C -82.39323088215107 -22.437992522556016 -83.28866138255107 -23.333423022956016 -83.28866138255107 -24.437992522556016 Z" fill-opacity="1"/><path fill="rgb(143,188,143)" stroke="none" paint-order="stroke fill markers" d=" M -77.7483858150372 -40.60167895472639 C -77.7483858150372 -41.706248454326385 -76.8529553146372 -42.60167895472639 -75.7483858150372 -42.60167895472639 C -74.64381631543719 -42.60167895472639 -73.7483858150372 -41.706248454326385 -73.7483858150372 -40.60167895472639 C -73.7483858150372 -39.49710945512639 -74.64381631543719 -38.60167895472639 -75.7483858150372 -38.60167895472639 C -76.8529553146372 -38.60167895472639 -77.7483858150372 -39.49710945512639 -77.7483858150372 -40.60167895472639 Z" fill-opacity="1"/><path fill="rgb(143,188,143)" stroke="none" paint-order="stroke fill markers" d=" M -68.98909303460883 -55.51828188455124 C -68.98909303460883 -56.62285138415124 -68.09366253420883 -57.51828188455124 -66.98909303460883 -57.51828188455124 C -65.88452353500882 -57.51828188455124 -64.98909303460883 -56.62285138415124 -64.98909303460883 -55.51828188455124 C -64.98909303460883 -54.413712384951246 -65.88452353500882 -53.51828188455124 -66.98909303460883 -53.51828188455124 C -68.09366253420883 -53.51828188455124 -68.98909303460883 -54.413712384951246 -68.98909303460883 -55.51828188455124 Z" fill-opacity="1"/><path fill="rgb(143,188,143)" stroke="none" paint-order="stroke fill markers" d=" M -57.2901374890299 -68.54614802306854 C -57.2901374890299 -69.65071752266854 -56.3947069886299 -70.54614802306854 -55.2901374890299 -70.54614802306854 C -54.185567989429906 -70.54614802306854 -53.2901374890299 -69.65071752266854 -53.2901374890299 -68.54614802306854 C -53.2901374890299 -67.44157852346854 -54.185567989429906 -66.54614802306854 -55.2901374890299 -66.54614802306854 C -56.3947069886299 -66.54614802306854 -57.2901374890299 -67.44157852346854 -57.2901374890299 -68.54614802306854 Z" fill-opacity="1"/><path fill="rgb(143,188,143)" stroke="none" paint-order="stroke fill markers" d=" M -43.058793643343854 -79.10598120314647 C -43.058793643343854 -80.21055070274647 -42.16336314294385 -81.10598120314647 -41.058793643343854 -81.10598120314647 C -39.95422414374386 -81.10598120314647 -39.058793643343854 -80.21055070274647 -39.058793643343854 -79.10598120314647 C -39.058793643343854 -78.00141170354647 -39.95422414374386 -77.10598120314647 -41.058793643343854 -77.10598120314647 C -42.16336314294385 -77.10598120314647 -43.058793643343854 -78.00141170354647 -43.058793643343854 -79.10598120314647 Z" fill-opacity="1"/><path fill="rgb(143,188,143)" stroke="none" paint-order="stroke fill markers" d=" M -26.816376398196546 -86.70632576164215 C -26.816376398196546 -87.81089526124215 -25.920945897796546 -88.70632576164215 -24.816376398196546 -88.70632576164215 C -23.711806898596546 -88.70632576164215 -22.816376398196546 -87.81089526124215 -22.816376398196546 -86.70632576164215 C -22.816376398196546 -85.60175626204214 -23.711806898596546 -84.70632576164215 -24.816376398196546 -84.70632576164215 C -25.920945897796546 -84.70632576164215 -26.816376398196546 -85.60175626204214 -26.816376398196546 -86.70632576164215 Z" fill-opacity="1"/><path fill="rgb(143,188,143)" stroke="none" paint-order="stroke fill markers" d=" M -9.179293533604179 -90.96596868004961 C -9.179293533604179 -92.07053817964962 -8.28386303320418 -92.96596868004961 -7.179293533604179 -92.96596868004961 C -6.074724034004179 -92.96596868004961 -5.179293533604179 -92.07053817964962 -5.179293533604179 -90.96596868004961 C -5.179293533604179 -89.86139918044961 -6.074724034004179 -88.96596868004961 -7.179293533604179 -88.96596868004961 C -8.28386303320418 -88.96596868004961 -9.179293533604179 -89.86139918044961 -9.179293533604179 -90.96596868004961 Z" fill-opacity="1"/><path fill="rgb(143,188,143)" stroke="none" paint-order="stroke fill markers" d=" M 9.164287623085627 -91.63225538089519 C 9.164287623085627 -92.73682488049519 10.059718123485627 -93.63225538089519 11.164287623085627 -93.63225538089519 C 12.268857122685628 -93.63225538089519 13.164287623085627 -92.73682488049519 13.164287623085627 -91.63225538089519 C 13.164287623085627 -90.52768588129518 12.268857122685628 -89.63225538089519 11.164287623085627 -89.63225538089519 C 10.059718123485627 -89.63225538089519 9.164287623085627 -90.52768588129518 9.164287623085627 -91.63225538089519 Z" fill-opacity="1"/><path fill="rgb(143,188,143)" stroke="none" paint-order="stroke fill markers" d=" M 27.481278549529314 -88.59446468060811 C 27.481278549529314 -89.69903418020812 28.376709049929314 -90.59446468060811 29.481278549529314 -90.59446468060811 C 30.585848049129314 -90.59446468060811 31.481278549529314 -89.69903418020812 31.481278549529314 -88.59446468060811 C 31.481278549529314 -87.48989518100811 30.585848049129314 -86.59446468060811 29.481278549529314 -86.59446468060811 C 28.376709049929314 -86.59446468060811 27.481278549529314 -87.48989518100811 27.481278549529314 -88.59446468060811 Z" fill-opacity="1"/><path fill="rgb(143,188,143)" stroke="none" paint-order="stroke fill markers" d=" M 45.022966729444924 -81.89157802495059 C 45.022966729444924 -82.9961475245506 45.91839722984493 -83.89157802495059 47.022966729444924 -83.89157802495059 C 48.12753622904492 -83.89157802495059 49.022966729444924 -82.9961475245506 49.022966729444924 -81.89157802495059 C 49.022966729444924 -80.78700852535059 48.12753622904492 -79.89157802495059 47.022966729444924 -79.89157802495059 C 45.91839722984493 -79.89157802495059 45.022966729444924 -80.78700852535059 45.022966729444924 -81.89157802495059 Z" fill-opacity="1"/><path fill="rgb(143,188,143)" stroke="none" paint-order="stroke fill markers" d=" M 61.05560087392614 -71.71399951361305 C 61.05560087392614 -72.81856901321305 61.95103137432614 -73.71399951361305 63.05560087392614 -73.71399951361305 C 64.16017037352614 -73.71399951361305 65.05560087392614 -72.81856901321305 65.05560087392614 -71.71399951361305 C 65.05560087392614 -70.60943001401304 64.16017037352614 -69.71399951361305 63.05560087392614 -69.71399951361305 C 61.95103137432614 -69.71399951361305 61.05560087392614 -70.60943001401304 61.05560087392614 -71.71399951361305 Z" fill-opacity="1"/><path fill="rgb(143,188,143)" stroke="none" paint-order="stroke fill markers" d=" M 74.89101546817479 -58.39902761431312 C 74.89101546817479 -59.503597113913116 75.78644596857478 -60.39902761431312 76.89101546817479 -60.39902761431312 C 77.99558496777479 -60.39902761431312 78.89101546817479 -59.503597113913116 78.89101546817479 -58.39902761431312 C 78.89101546817479 -57.29445811471312 77.99558496777479 -56.39902761431312 76.89101546817479 -56.39902761431312 C 75.78644596857478 -56.39902761431312 74.89101546817479 -57.29445811471312 74.89101546817479 -58.39902761431312 Z" fill-opacity="1"/><path fill="rgb(143,188,143)" stroke="none" paint-order="stroke fill markers" d=" M 85.9160190343977 -42.42013700167145 C 85.9160190343977 -43.524706501271446 86.8114495347977 -44.42013700167145 87.9160190343977 -44.42013700167145 C 89.02058853399771 -44.42013700167145 89.9160190343977 -43.524706501271446 89.9160190343977 -42.42013700167145 C 89.9160190343977 -41.31556750207145 89.02058853399771 -40.42013700167145 87.9160190343977 -40.42013700167145 C 86.8114495347977 -40.42013700167145 85.9160190343977 -41.31556750207145 85.9160190343977 -42.42013700167145 Z" fill-opacity="1"/><path fill="rgb(143,188,143)" stroke="none" paint-order="stroke fill markers" d=" M 93.61929662263779 -24.370389028914474 C 93.61929662263779 -25.474958528514474 94.51472712303779 -26.370389028914474 95.61929662263779 -26.370389028914474 C 96.7238661222378 -26.370389028914474 97.61929662263779 -25.474958528514474 97.61929662263779 -24.370389028914474 C 97.61929662263779 -23.265819529314474 96.7238661222378 -22.370389028914474 95.61929662263779 -22.370389028914474 C 94.51472712303779 -22.370389028914474 93.61929662263779 -23.265819529314474 93.61929662263779 -24.370389028914474 Z" fill-opacity="1"/><path fill="rgb(143,188,143)" stroke="none" paint-order="stroke fill markers" d=" M 97.61465607995423 -4.940541052480932 C 97.61465607995423 -6.045110552080932 98.51008658035423 -6.940541052480932 99.61465607995423 -6.940541052480932 C 100.71922557955423 -6.940541052480932 101.61465607995423 -6.045110552080932 101.61465607995423 -4.940541052480932 C 101.61465607995423 -3.835971552880932 100.71922557955423 -2.940541052480932 99.61465607995423 -2.940541052480932 C 98.51008658035423 -2.940541052480932 97.61465607995423 -3.835971552880932 97.61465607995423 -4.940541052480932 Z" fill-opacity="1"/></g></svg>