<svg version="1.1" xmlns="http://www.w3.org/2000/svg" xmlns:xlink="http://www.w3.org/1999/xlink" width="400" height="400" viewBox="0 0 400 400"><defs/><g/><g transform="scale(1,1) scale(1,1) translate(200,200)"><path fill="rgb(143,188,143)" stroke="none" paint-order="stroke fill markers" d=" M 90 0 C 90 -5.522847498 94.477152502 -10 100 -10 C 105.522847498 -10 110 -5.522847498 110 0 C 110 5.522847498 105.522847498 10 100 10 C 94.477152502 10 90 5.522847498 90 0 Z" fill-opacity="1"/><path fill="rgb(143,188,143)" stroke="none" paint-order="stroke fill markers" d=" M 76.60254037844388 49.99999999999999 C 76.60254037844388 44.477152501999996 81.07969288044387 39.99999999999999 86.60254037844388 39.99999999999999 C 92.12538787644388 39.99999999999999 96.60254037844388 44.477152501999996 96.60254037844388 49.99999999999999 C 96.60254037844388 55.52284749799999 92.12538787644388 59.99999999999999 86.60254037844388 59.99999999999999 C 81.07969288044387 59.99999999999999 76.60254037844388 55.52284749799999 76.60254037844388 49.99999999999999 Z" fill-opacity="1"/><path fill="rgb(143,188,143)" stroke="none" paint-order="stroke fill markers" d=" M 40.000000000000014 86.60254037844386 C 40.000000000000014 81.07969288044386 44.47715250200002 76.60254037844386 50.000000000000014 76.60254037844386 C 55.52284749800001 76.60254037844386 60.000000000000014 81.07969288044386 60.000000000000014 86.60254037844386 C 60.000000000000014 92.12538787644387 55.52284749800001 96.60254037844386 50.000000000000014 96.60254037844386 C 44.47715250200002 96.60254037844386 40.000000000000014 92.12538787644387 40.000000000000014 86.60254037844386 Z" fill-opacity="1"/><path fill="rgb(143,188,143)" stroke="none" paint-order="stroke fill markers" d=" M -9.999999999999995 100 C -9.999999999999995 94.477152502 -5.522847497999995 90 5.329070518200751e-15 90 C 5.522847498000005 90 10.000000000000005 94.477152502 10.000000000000005 100 C 10.000000000000005 105.522847498 5.522847498000005 110 5.329070518200751e-15 110 C -5.522847497999995 110 -9.999999999999995 105.522847498 -9.999999999999995 100 Z" fill-opacity="1"/><path fill="rgb(143,188,143)" stroke="none" paint-order="stroke fill markers" d=" M -59.99999999999998 86.60254037844388 C -59.99999999999998 81.07969288044387 -55.522847497999976 76.60254037844388 -49.99999999999998 76.60254037844388 C -44.47715250199998 76.60254037844388 -39.99999999999998 81.07969288044387 -39.99999999999998 86.60254037844388 C -39.99999999999998 92.12538787644388 -44.47715250199998 96.60254037844388 -49.99999999999998 96.60254037844388 C -55.522847497999976 96.60254037844388 -59.99999999999998 92.12538787644388 -59.99999999999998 86.60254037844388 Z" fill-opacity="1"/><path fill="rgb(143,188,143)" stroke="none" paint-order="stroke fill markers" d=" M -96.60254037844388 49.99999999999999 C -96.60254037844388 44.477152501999996 -92.12538787644388 39.99999999999999 -86.60254037844388 39.99999999999999 C -81.07969288044387 39.99999999999999 -76.60254037844388 44.477152501999996 -76.60254037844388 49.99999999999999 C -76.60254037844388 55.52284749799999 -81.07969288044387 59.99999999999999 -86.60254037844388 59.99999999999999 C -92.12538787644388 59.99999999999999 -96.60254037844388 55.52284749799999 -96.60254037844388 49.99999999999999 Z" fill-opacity="1"/><path fill="rgb(143,188,143)" stroke="none" paint-order="stroke fill markers" d=" M -110 1.2434497875801753e-14 C -110 -5.5228474979999875 -105.522847498 -9.999999999999988 -100 -9.999999999999988 C -94.477152502 -9.999999999999988 -90 -5.5228474979999875 -90 1.2434497875801753e-14 C -90 5.522847498000012 -94.477152502 10.000000000000012 -100 10.000000000000012 C -105.522847498 10.000000000000012 -110 5.522847498000012 -110 1.2434497875801753e-14 Z" fill-opacity="1"/></g></svg>