<svg version="1.1" xmlns="http://www.w3.org/2000/svg" xmlns:xlink="http://www.w3.org/1999/xlink" width="400" height="400" viewBox="0 0 400 400"><defs/><g/><g transform="scale(1,1) scale(1,1) translate(200,200)"><path fill="rgb(143,188,143)" stroke="none" paint-order="stroke fill markers" d=" M 90 0 C 90 -5.522847498 94.477152502 -10 100 -10 C 105.522847498 -10 110 -5.522847498 110 0 C 110 5.522847498 105.522847498 10 100 10 C 94.477152502 10 90 5.522847498 90 0 Z" fill-opacity="1"/><path fill="rgb(143,188,143)" stroke="none" paint-order="stroke fill markers" d=" M 60.710678118654755 70.71067811865474 C 60.710678118654755 65.18783062065474 65.18783062065475 60.71067811865474 70.71067811865476 60.71067811865474 C 76.23352561665476 60.71067811865474 80.71067811865476 65.18783062065474 80.71067811865476 70.71067811865474 C 80.71067811865476 76.23352561665475 76.23352561665476 80.71067811865474 70.71067811865476 80.71067811865474 C 65.18783062065475 80.71067811865474 60.710678118654755 76.23352561665475 60.710678118654755 70.71067811865474 Z" fill-opacity="1"/><path fill="rgb(143,188,143)" stroke="none" paint-order="stroke fill markers" d=" M -9.999999999999995 100 C -9.999999999999995 94.477152502 -5.522847497999995 90 5.329070518200751e-15 90 C 5.522847498000005 90 10.000000000000005 94.477152502 10.000000000000005 100 C 10.000000000000005 105.522847498 5.522847498000005 110 5.329070518200751e-15 110 C -5.522847497999995 110 -9.999999999999995 105.522847498 -9.999999999999995 100 Z" fill-opacity="1"/><path fill="rgb(143,188,143)" stroke="none" paint-order="stroke fill markers" d=" M -80.71067811865474 70.71067811865476 C -80.71067811865474 65.18783062065475 -76.23352561665475 60.710678118654755 -70.71067811865474 60.710678118654755 C -65.18783062065474 60.710678118654755 -60.71067811865474 65.18783062065475 -60.71067811865474 70.71067811865476 C -60.71067811865474 76.23352561665476 -65.18783062065474 80.71067811865476 -70.71067811865474 80.71067811865476 C -76.23352561665475 80.71067811865476 -80.71067811865474 76.23352561665476 -80.71067811865474 70.71067811865476 Z" fill-opacity="1"/><path fill="rgb(143,188,143)" stroke="none" paint-order="stroke fill markers" d=" M -110 1.2434497875801753e-14 C -110 -5.5228474979999875 -105.522847498 -9.999999999999988 -100 -9.999999999999988 C -94.477152502 -9.999999999999988 -90 -5.5228474979999875 -90 1.2434497875801753e-14 C -90 5.522847498000012 -94.477152502 10.000000000000012 -100 10.000000000000012 C -105.522847498 10.000000000000012 -110 5.522847498000012 -110 1.2434497875801753e-14 Z" fill-opacity="1"/><path fill="rgb(143,188,143)" stroke="none" paint-order="stroke fill markers" d=" M -80.71067811865477 -70.71067811865474 C -80.71067811865477 -76.23352561665475 -76.23352561665477 -80.71067811865474 -70.71067811865477 -80.71067811865474 C -65.18783062065476 -80.71067811865474 -60.71067811865477 -76.23352561665475 -60.71067811865477 -70.71067811865474 C -60.71067811865477 -65.18783062065474 -65.18783062065476 -60.71067811865474 -70.71067811865477 -60.71067811865474 C -76.23352561665477 -60.71067811865474 -80.71067811865477 -65.18783062065474 -80.71067811865477 -70.71067811865474 Z" fill-opacity="1"/><path fill="rgb(143,188,143)" stroke="none" paint-order="stroke fill markers" d=" M -10.000000000000018 -100 C -10.000000000000018 -105.522847498 -5.522847498000018 -110 -1.7763568394002505e-14 -110 C 5.522847497999982 -110 9.999999999999982 -105.522847498 9.999999999999982 -100 C 9.999999999999982 -94.477152502 5.522847497999982 -90 -1.7763568394002505e-14 -90 C -5.522847498000018 -90 -10.000000000000018 -94.477152502 -10.000000000000018 -100 Z" fill-opacity="1"/><path fill="rgb(143,188,143)" stroke="none" paint-order="stroke fill markers" d=" M 60.71067811865474 -70.71067811865477 C 60.71067811865474 -76.23352561665477 65.18783062065474 -80.71067811865477 70.71067811865474 -80.71067811865477 C 76.23352561665475 -80.71067811865477 80.71067811865474 -76.23352561665477 80.71067811865474 -70.71067811865477 C 80.71067811865474 -65.18783062065476 76.23352561665475 -60.71067811865477 70.71067811865474 -60.71067811865477 C 65.18783062065474 -60.71067811865477 60.71067811865474 -65.18783062065476 60.71067811865474 -70.71067811865477 Z" fill-opacity="1"/><path fill="rgb(143,188,143)" stroke="none" paint-order="stroke fill markers" d=" M 90 -2.4868995751603507e-14 C 90 -5.522847498000025 94.477152502 -10.000000000000025 100 -10.000000000000025 C 105.522847498 -10.000000000000025 110 -5.522847498000025 110 -2.4868995751603507e-14 C 110 5.522847497999975 105.522847498 9.999999999999975 100 9.999999999999975 C 94.477152502 9.999999999999975 90 5.522847497999975 90 -2.4868995751603507e-14 Z" fill-opacity="1"/></g></svg>